<svg width="38" height="38" viewBox="0 0 38 38" fill="none" xmlns="http://www.w3.org/2000/svg">
<rect x="1" y="1" width="36" height="36" rx="18" fill="#BBBBBB"/>
<rect x="1" y="1" width="36" height="36" rx="18" stroke="#656565" stroke-width="2"/>
<path d="M29.5147 13.0181C28.145 13.0181 26.8813 12.5643 25.8664 11.7988C24.7025 10.9213 23.8663 9.63416 23.571 8.15057C23.4969 7.77753 23.458 7.39837 23.4547 7.01807H19.5421V17.7093L19.5374 23.5654C19.5374 25.131 18.5178 26.4585 17.1046 26.9254C16.6812 27.0654 16.2354 27.1245 15.7902 27.0998C15.2014 27.0674 14.6497 26.8898 14.1702 26.6029C13.1497 25.9926 12.4578 24.8854 12.4391 23.6188C12.4096 21.6393 14.0099 20.0254 15.988 20.0254C16.3785 20.0254 16.7535 20.0892 17.1046 20.2049V16.2323C16.7342 16.1774 16.3574 16.1488 15.9763 16.1488C13.8111 16.1488 11.7861 17.0488 10.3386 18.6703C9.24456 19.8956 8.58831 21.4588 8.48706 23.0981C8.3544 25.2515 9.14237 27.2985 10.6705 28.8088C10.895 29.0306 11.1308 29.2363 11.3774 29.4262C12.6875 30.4345 14.2892 30.981 15.9763 30.981C16.3574 30.981 16.7342 30.9529 17.1046 30.8981C18.6805 30.6646 20.1346 29.9432 21.2821 28.8088C22.6921 27.4153 23.4711 25.5651 23.4796 23.5959L23.4594 14.8509C24.1336 15.3709 24.8723 15.8017 25.6569 16.1324C26.8846 16.6504 28.1863 16.9129 29.526 16.9124V13.0171C29.5269 13.0181 29.5157 13.0181 29.5147 13.0181Z" fill="white"/>
</svg>
