<svg width="38" height="38" viewBox="0 0 38 38" fill="none" xmlns="http://www.w3.org/2000/svg">
<rect x="1" y="1" width="36" height="36" rx="18" fill="#BBBBBB"/>
<rect x="1" y="1" width="36" height="36" rx="18" stroke="#656565" stroke-width="2"/>
<g clip-path="url(#clip0_924_41)">
<path d="M24.4996 8H13.4999C10.4752 8 8 10.4752 8 13.4999V24.5001C8 27.524 10.4752 30 13.4999 30H24.4996C27.5243 30 29.9995 27.524 29.9995 24.5001V13.4999C29.9995 10.4752 27.5243 8 24.4996 8ZM28.1661 24.5001C28.1661 26.5213 26.5219 28.1666 24.4996 28.1666H13.4999C11.4784 28.1666 9.83338 26.5213 9.83338 24.5001V13.4999C9.83338 11.4781 11.4784 9.83338 13.4999 9.83338H24.4996C26.5219 9.83338 28.1661 11.4781 28.1661 13.4999V24.5001Z" fill="white"/>
<path d="M24.959 14.4164C25.7183 14.4164 26.3339 13.8008 26.3339 13.0415C26.3339 12.2821 25.7183 11.6665 24.959 11.6665C24.1996 11.6665 23.584 12.2821 23.584 13.0415C23.584 13.8008 24.1996 14.4164 24.959 14.4164Z" fill="white"/>
<path d="M18.9999 13.5C15.9617 13.5 13.5 15.962 13.5 18.9999C13.5 22.0366 15.9617 24.5003 18.9999 24.5003C22.0371 24.5003 24.4997 22.0366 24.4997 18.9999C24.4997 15.962 22.0371 13.5 18.9999 13.5ZM18.9999 22.6669C16.9751 22.6669 15.3334 21.0252 15.3334 18.9999C15.3334 16.9745 16.9751 15.3334 18.9999 15.3334C21.0247 15.3334 22.6664 16.9745 22.6664 18.9999C22.6664 21.0252 21.0247 22.6669 18.9999 22.6669Z" fill="white"/>
</g>
<defs>
<clipPath id="clip0_924_41">
<rect width="22" height="22" fill="white" transform="translate(8 8)"/>
</clipPath>
</defs>
</svg>
