<svg width="38" height="38" viewBox="0 0 38 38" fill="none" xmlns="http://www.w3.org/2000/svg">
<rect x="1" y="1" width="36" height="36" rx="18" fill="#BBBBBB"/>
<rect x="1" y="1" width="36" height="36" rx="18" stroke="#656565" stroke-width="2"/>
<path d="M30.5261 13.5198C30.2611 12.5345 29.4842 11.7578 28.499 11.4925C26.6992 11 19.4997 11 19.4997 11C19.4997 11 12.3006 11 10.5008 11.4738C9.5345 11.7388 8.7387 12.5347 8.47366 13.5198C8 15.3195 8 19.0519 8 19.0519C8 19.0519 8 22.803 8.47366 24.5839C8.73895 25.5691 9.51556 26.3458 10.5009 26.6111C12.3195 27.1037 19.5 27.1037 19.5 27.1037C19.5 27.1037 26.6992 27.1037 28.499 26.6299C29.4843 26.3647 30.2611 25.588 30.5264 24.6028C30.9999 22.803 30.9999 19.0708 30.9999 19.0708C30.9999 19.0708 31.0188 15.3195 30.5261 13.5198ZM17.2076 22.4999V15.6037L23.1943 19.0518L17.2076 22.4999Z" fill="white"/>
</svg>
