<svg width="45" height="45" viewBox="0 0 45 45" fill="none" xmlns="http://www.w3.org/2000/svg">
<rect x="1.16602" y="1.1665" width="42" height="42" rx="21" fill="#BBBBBB"/>
<rect x="1.16602" y="1.1665" width="42" height="42" rx="21" stroke="#656565" stroke-width="2.33333"/>
<path d="M28.2613 12.8633C25.9654 12.8633 24.1706 14.5925 22.546 16.7892C20.3134 13.9465 18.4462 12.8633 16.2118 12.8633C11.6564 12.8633 8.16602 18.7918 8.16602 25.0667C8.16602 28.9934 10.0657 31.47 13.2476 31.47C15.5377 31.47 17.1848 30.3904 20.1128 25.272C20.1128 25.272 21.3334 23.1166 22.1731 21.6318C22.4877 22.1408 22.7976 22.6528 23.1028 23.1676L24.4758 25.4773C27.1505 29.9532 28.6407 31.47 31.341 31.47C34.4408 31.47 36.166 28.9595 36.166 24.9512C36.166 18.3811 32.5969 12.8633 28.2613 12.8633ZM17.88 23.8862C15.5061 27.6076 14.6848 28.4417 13.3631 28.4417C12.0028 28.4417 11.1944 27.2475 11.1944 25.1181C11.1944 20.5626 13.4658 15.9045 16.1734 15.9045C17.6396 15.9045 18.8649 16.7513 20.7417 19.4382C18.9596 22.1718 17.88 23.8862 17.88 23.8862ZM26.8397 23.4177L25.1981 20.6798C24.7538 19.9572 24.328 19.2933 23.9172 18.6845C25.3968 16.4009 26.6173 15.2629 28.0689 15.2629C31.0845 15.2629 33.4969 19.7029 33.4969 25.1566C33.4969 27.2354 32.816 28.4417 31.4053 28.4417C30.0531 28.4416 29.4071 27.5486 26.8397 23.4177Z" fill="white"/>
</svg>
