<svg width="45" height="45" viewBox="0 0 45 45" fill="none" xmlns="http://www.w3.org/2000/svg">
<rect x="1.16602" y="1.1665" width="42" height="42" rx="21" fill="#BBBBBB"/>
<rect x="1.16602" y="1.1665" width="42" height="42" rx="21" stroke="#656565" stroke-width="2.33333"/>
<g clip-path="url(#clip0_924_118)">
<path d="M9.95815 26.821C9.60061 27.4409 9.39043 28.1348 9.34387 28.8489C9.29731 29.563 9.41562 30.2783 9.68964 30.9394C9.96367 31.6005 10.3861 32.1897 10.9242 32.6615C11.4623 33.1333 12.1017 33.475 12.793 33.6602C13.4842 33.8454 14.2088 33.8691 14.9107 33.7296C15.6126 33.59 16.273 33.2909 16.8409 32.8553C17.4087 32.4198 17.8688 31.8595 18.1855 31.2177C18.5022 30.576 18.667 29.87 18.6673 29.1543C18.6677 28.1267 18.3289 27.1277 17.7035 26.3123C17.078 25.4969 16.201 24.9108 15.2083 24.6448C14.2157 24.3789 13.1631 24.448 12.2138 24.8415C11.2645 25.235 10.4716 25.9308 9.95815 26.821Z" fill="white"/>
<path d="M16.9629 14.6872L11.7129 23.7872C12.5455 23.4322 13.4493 23.2758 14.3528 23.3304C15.2563 23.385 16.1347 23.6492 16.9185 24.1019C17.7023 24.5546 18.3699 25.1835 18.8687 25.9389C19.3674 26.6942 19.6836 27.5552 19.7921 28.4539L22.0787 24.4872C17.7387 16.9855 17.1087 16.268 16.9629 14.6872ZM35.5421 26.8205C35.2446 26.3189 26.7162 11.4964 26.5471 11.2805C25.845 10.3013 24.7914 9.6316 23.6068 9.41153C22.4222 9.19146 21.1984 9.43809 20.1915 10.0998C19.1846 10.7615 18.4727 11.787 18.2047 12.9617C17.9367 14.1364 18.1334 15.3693 18.7537 16.4022C18.6954 16.4022 18.4621 15.9005 27.4571 31.4872C27.7635 32.0181 28.1715 32.4834 28.6577 32.8566C29.144 33.2298 29.6989 33.5035 30.291 33.6622C30.883 33.821 31.5006 33.8615 32.1083 33.7816C32.716 33.7016 33.302 33.5028 33.8329 33.1964C34.3638 32.8899 34.8291 32.482 35.2023 31.9957C35.5755 31.5095 35.8492 30.9545 36.0079 30.3624C36.1667 29.7704 36.2072 29.1529 36.1273 28.5451C36.0473 27.9374 35.8485 27.3514 35.5421 26.8205Z" fill="white"/>
</g>
<defs>
<clipPath id="clip0_924_118">
<rect width="28" height="28" fill="white" transform="translate(8.16602 8.1665)"/>
</clipPath>
</defs>
</svg>
