<svg width="54" height="22" viewBox="0 0 54 22" fill="none" xmlns="http://www.w3.org/2000/svg">
<g clip-path="url(#clip0_589_14442)">
<path d="M40.5003 18.0827L51.1484 11.9142C51.2999 11.815 51.4243 11.6795 51.5104 11.52C51.5965 11.3604 51.6416 11.1818 51.6416 11.0004C51.6416 10.819 51.5965 10.6404 51.5104 10.4808C51.4243 10.3213 51.2999 10.1858 51.1484 10.0866L40.5003 3.91809C40.2928 3.8052 40.0537 3.76478 39.8208 3.8032C39.5879 3.84161 39.3743 3.95668 39.2138 4.13026C39.0533 4.30384 38.955 4.52605 38.9343 4.76188C38.9136 4.9977 38.9718 5.23371 39.0997 5.43271L42.1878 9.94271L3.37529 9.94271C3.09557 9.94271 2.82731 10.0541 2.62951 10.2525C2.43172 10.4509 2.3206 10.7199 2.3206 11.0004C2.3206 11.2809 2.43172 11.5499 2.62951 11.7483C2.82731 11.9467 3.09557 12.0581 3.37529 12.0581L42.1878 12.0581L39.0997 16.5681C38.9718 16.7671 38.9136 17.0031 38.9343 17.2389C38.955 17.4747 39.0533 17.697 39.2138 17.8705C39.3743 18.0441 39.5879 18.1592 39.8208 18.1976C40.0537 18.236 40.2928 18.1956 40.5003 18.0827Z" fill="url(#paint0_linear_589_14442)"/>
</g>
<defs>
<linearGradient id="paint0_linear_589_14442" x1="52.0002" y1="11.0005" x2="2.50024" y2="11.0005" gradientUnits="userSpaceOnUse">
<stop stop-color="#29A6B4"/>
<stop offset="1" stop-color="#9ED2C3"/>
</linearGradient>
<clipPath id="clip0_589_14442">
<rect width="22" height="54" fill="white" transform="translate(54 2.36042e-06) rotate(90)"/>
</clipPath>
</defs>
</svg>
