<svg xmlns="http://www.w3.org/2000/svg" width="10" height="6" viewBox="0 0 10 6" fill="none">
  <path fill-rule="evenodd" clip-rule="evenodd" d="M2.25 0C2.84674 0 3.41903 0.237053 3.84099 0.65901C4.26295 1.08097 4.5 1.65326 4.5 2.25V5.25C4.5 5.44891 4.42098 5.63968 4.28033 5.78033C4.13968 5.92098 3.94891 6 3.75 6C3.55109 6 3.36032 5.92098 3.21967 5.78033C3.07902 5.63968 3 5.44891 3 5.25V2.25C3 2.05109 2.92098 1.86032 2.78033 1.71967C2.63968 1.57902 2.44891 1.5 2.25 1.5C2.05109 1.5 1.86032 1.57902 1.71967 1.71967C1.57902 1.86032 1.5 2.05109 1.5 2.25V5.25C1.5 5.44891 1.42098 5.63968 1.28033 5.78033C1.13968 5.92098 0.948912 6 0.75 6C0.551088 6 0.360322 5.92098 0.21967 5.78033C0.0790175 5.63968 0 5.44891 0 5.25V2.25C0 1.65326 0.237053 1.08097 0.65901 0.65901C1.08097 0.237053 1.65326 0 2.25 0ZM5.5 5.25V0.75C5.5 0.551088 5.57902 0.360322 5.71967 0.21967C5.86032 0.0790175 6.05109 0 6.25 0H7.75C8.34674 0 8.91903 0.237053 9.34099 0.65901C9.76295 1.08097 10 1.65326 10 2.25V3.75C10 4.34674 9.76295 4.91903 9.34099 5.34099C8.91903 5.76295 8.34674 6 7.75 6H6.25C6.05109 6 5.86032 5.92098 5.71967 5.78033C5.57902 5.63968 5.5 5.44891 5.5 5.25ZM7 4.5H7.75C7.94891 4.5 8.13968 4.42098 8.28033 4.28033C8.42098 4.13968 8.5 3.94891 8.5 3.75V2.25C8.5 2.05109 8.42098 1.86032 8.28033 1.71967C8.13968 1.57902 7.94891 1.5 7.75 1.5H7V4.5Z" fill="white"/>
</svg>