<svg width="54" height="54" viewBox="0 0 54 54" fill="none" xmlns="http://www.w3.org/2000/svg">
<circle cx="27" cy="27" r="26" stroke="#5D5D5D" strokeWidth="2"/>
<circle cx="27" cy="27" r="25" fill="#BBBBBB"/>
<path d="M13.2938 32.625C12.9107 33.2892 12.6855 34.0326 12.6356 34.7978C12.5857 35.5629 12.7125 36.3292 13.0061 37.0376C13.2997 37.7459 13.7522 38.3772 14.3288 38.8827C14.9053 39.3882 15.5904 39.7543 16.3311 39.9527C17.0717 40.1511 17.848 40.1766 18.6001 40.027C19.3521 39.8775 20.0597 39.557 20.6681 39.0904C21.2765 38.6237 21.7694 38.0234 22.1087 37.3358C22.4481 36.6482 22.6247 35.8918 22.625 35.125C22.6254 34.024 22.2624 32.9536 21.5923 32.08C20.9222 31.2063 19.9825 30.5783 18.919 30.2934C17.8554 30.0084 16.7276 30.0825 15.7105 30.5041C14.6934 30.9257 13.8438 31.6712 13.2938 32.625Z" fill="white"/>
<path d="M20.8008 19.6248L15.1758 29.3748C16.0679 28.9944 17.0362 28.8269 18.0043 28.8854C18.9723 28.9439 19.9134 29.2269 20.7532 29.712C21.593 30.1971 22.3083 30.8709 22.8427 31.6802C23.3771 32.4895 23.7158 33.412 23.832 34.3748L26.282 30.1248C21.632 22.0873 20.957 21.3186 20.8008 19.6248ZM40.707 32.6248C40.3883 32.0873 31.2508 16.2061 31.0695 15.9748C30.3173 14.9257 29.1885 14.2081 27.9193 13.9723C26.6501 13.7365 25.3388 14.0008 24.26 14.7098C23.1812 15.4187 22.4184 16.5175 22.1313 17.7761C21.8441 19.0347 22.0549 20.3556 22.7195 21.4623C22.657 21.4623 22.407 20.9248 32.0445 37.6248C32.3728 38.1936 32.81 38.6921 33.3309 39.092C33.8519 39.4919 34.4466 39.7852 35.0809 39.9552C35.7152 40.1253 36.3769 40.1687 37.028 40.0831C37.6791 39.9974 38.307 39.7844 38.8758 39.4561C39.4446 39.1277 39.9431 38.6906 40.343 38.1696C40.7428 37.6487 41.0362 37.054 41.2062 36.4197C41.3762 35.7854 41.4197 35.1237 41.334 34.4726C41.2484 33.8215 41.0353 33.1936 40.707 32.6248Z" fill="white"/>
</svg>
