<svg width="54" height="54" viewBox="0 0 54 54" fill="none" xmlns="http://www.w3.org/2000/svg">
<circle cx="27" cy="27" r="26" stroke="#5D5D5D" strokeWidth="2"/>
<circle cx="27" cy="27" r="25" fill="#BBBBBB"/>
<g clip-path="url(#clip0_612_29224)">
<path d="M34.4994 12H19.4998C15.3753 12 12 15.3753 12 19.4998V34.5002C12 38.6236 15.3753 42 19.4998 42H34.4994C38.624 42 41.9993 38.6236 41.9993 34.5002V19.4998C41.9993 15.3753 38.624 12 34.4994 12ZM39.4992 34.5002C39.4992 37.2564 37.2572 39.4999 34.4994 39.4999H19.4998C16.7433 39.4999 14.5001 37.2564 14.5001 34.5002V19.4998C14.5001 16.7429 16.7433 14.5001 19.4998 14.5001H34.4994C37.2572 14.5001 39.4992 16.7429 39.4992 19.4998V34.5002Z" fill="white"/>
<path d="M35.125 20.7494C36.1605 20.7494 36.9999 19.91 36.9999 18.8745C36.9999 17.839 36.1605 16.9995 35.125 16.9995C34.0894 16.9995 33.25 17.839 33.25 18.8745C33.25 19.91 34.0894 20.7494 35.125 20.7494Z" fill="white"/>
<path d="M26.9998 19.5C22.8569 19.5 19.5 22.8573 19.5 26.9998C19.5 31.1408 22.8569 34.5004 26.9998 34.5004C31.1416 34.5004 34.4996 31.1408 34.4996 26.9998C34.4996 22.8573 31.1416 19.5 26.9998 19.5ZM26.9998 32.0003C24.2387 32.0003 22.0001 29.7616 22.0001 26.9998C22.0001 24.238 24.2387 22.0001 26.9998 22.0001C29.7609 22.0001 31.9996 24.238 31.9996 26.9998C31.9996 29.7616 29.7609 32.0003 26.9998 32.0003Z" fill="white"/>
</g>
<defs>
<clipPath id="clip0_612_29224">
<rect width="30" height="30" fill="white" transform="translate(12 12)"/>
</clipPath>
</defs>
</svg>
