<svg width="54" height="54" viewBox="0 0 54 54" fill="none" xmlns="http://www.w3.org/2000/svg">
<rect width="54" height="54" rx="27" fill="url(#paint0_linear_1_14629)" fill-opacity="0.12"/>
<path d="M27.0131 21.9688C24.235 21.96 21.9775 24.2088 21.9687 26.9869C21.96 29.765 24.2087 32.0225 26.9869 32.0313C29.765 32.04 32.0225 29.7913 32.0312 27.0132C32.04 24.235 29.7912 21.9775 27.0131 21.9688ZM26.9869 23.7363C28.7894 23.7275 30.255 25.1844 30.2637 26.9869C30.2725 28.7894 28.8156 30.255 27.0131 30.2638C25.2106 30.2725 23.745 28.8157 23.7362 27.0132C23.7275 25.2107 25.1844 23.745 26.9869 23.7363ZM31.0731 21.7632C31.0731 21.1157 31.5981 20.5907 32.2456 20.5907C32.8931 20.5907 33.4181 21.1157 33.4181 21.7632C33.4181 22.4107 32.8931 22.9357 32.2456 22.9357C31.5981 22.9357 31.0731 22.4107 31.0731 21.7632ZM36.7475 22.9532C36.6731 21.3825 36.3144 19.9913 35.1637 18.845C34.0175 17.6988 32.6262 17.34 31.0556 17.2613C29.4369 17.1694 24.585 17.1694 22.9662 17.2613C21.4 17.3357 20.0087 17.6944 18.8581 18.8407C17.7075 19.9869 17.3531 21.3782 17.2744 22.9488C17.1825 24.5675 17.1825 29.4194 17.2744 31.0382C17.3487 32.6088 17.7075 34 18.8581 35.1463C20.0087 36.2925 21.3956 36.6513 22.9662 36.73C24.585 36.8219 29.4369 36.8219 31.0556 36.73C32.6262 36.6557 34.0175 36.2969 35.1637 35.1463C36.31 34 36.6687 32.6088 36.7475 31.0382C36.8393 29.4194 36.8393 24.5719 36.7475 22.9532ZM34.6562 32.775C34.315 33.6325 33.6544 34.2932 32.7925 34.6388C31.5019 35.1507 28.4393 35.0325 27.0131 35.0325C25.5868 35.0325 22.52 35.1463 21.2337 34.6388C20.3762 34.2975 19.7156 33.6369 19.37 32.775C18.8581 31.4844 18.9762 28.4219 18.9762 26.9957C18.9762 25.5694 18.8625 22.5025 19.37 21.2163C19.7112 20.3588 20.3719 19.6982 21.2337 19.3525C22.5244 18.8407 25.5868 18.9588 27.0131 18.9588C28.4393 18.9588 31.5062 18.845 32.7925 19.3525C33.65 19.6938 34.3106 20.3544 34.6562 21.2163C35.1681 22.5069 35.05 25.5694 35.05 26.9957C35.05 28.4219 35.1681 31.4888 34.6562 32.775Z" fill="white"/>
<defs>
<linearGradient id="paint0_linear_1_14629" x1="0" y1="27" x2="54" y2="27" gradientUnits="userSpaceOnUse">
<stop stop-color="#29A6B4"/>
<stop offset="1" stop-color="#9ED2C3"/>
</linearGradient>
</defs>
</svg>
