<svg width="54" height="54" viewBox="0 0 54 54" fill="none" xmlns="http://www.w3.org/2000/svg">
<rect width="54" height="54" rx="27" fill="url(#paint0_linear_1_14523)" fill-opacity="0.12"/>
<path d="M35.4 17.2002H18.5956C17.8256 17.2002 17.2 17.8346 17.2 18.6133V35.3871C17.2 36.1658 17.8256 36.8002 18.5956 36.8002H35.4C36.17 36.8002 36.8 36.1658 36.8 35.3871V18.6133C36.8 17.8346 36.17 17.2002 35.4 17.2002ZM23.1237 34.0002H20.2187V24.6464H23.1281V34.0002H23.1237ZM21.6712 20.0002C22.6031 20.0002 23.3556 20.7527 23.3556 21.6846C23.3556 22.6164 22.6031 23.3689 21.6712 23.3689C20.7393 23.3689 19.9868 22.6164 19.9868 21.6846C19.9868 20.7527 20.7393 20.0002 21.6712 20.0002ZM34.0131 34.0002H31.1081V29.4502C31.1081 28.3652 31.0862 26.9696 29.5987 26.9696C28.085 26.9696 27.8531 28.1508 27.8531 29.3714V34.0002H24.9481V24.6464H27.735V25.9239H27.7743C28.1637 25.1889 29.1131 24.4146 30.5262 24.4146C33.4662 24.4146 34.0131 26.3527 34.0131 28.8727V34.0002Z" fill="white"/>
<defs>
<linearGradient id="paint0_linear_1_14523" x1="0" y1="27" x2="54" y2="27" gradientUnits="userSpaceOnUse">
<stop stop-color="#29A6B4"/>
<stop offset="1" stop-color="#9ED2C3"/>
</linearGradient>
</defs>
</svg>
