<svg width="54" height="54" viewBox="0 0 54 54" fill="none" xmlns="http://www.w3.org/2000/svg">
<circle cx="27" cy="27" r="26" stroke="#5D5D5D" strokeWidth="2"/>
<circle cx="27" cy="27" r="25" fill="#BBBBBB"/>
<path d="M34.4014 15.7031C31.6136 15.7031 29.4342 17.8029 27.4614 20.4703C24.7504 17.0184 22.4831 15.7031 19.7699 15.7031C14.2383 15.7031 10 22.902 10 30.5216C10 35.2897 12.3068 38.297 16.1705 38.297C18.9514 38.297 20.9514 36.986 24.5068 30.7709C24.5068 30.7709 25.989 28.1536 27.0086 26.3506C27.3907 26.9687 27.767 27.5903 28.1375 28.2155L29.8047 31.0202C33.0525 36.4551 34.8621 38.297 38.1411 38.297C41.9052 38.297 43.9999 35.2485 43.9999 30.3813C44 22.4034 39.6661 15.7031 34.4014 15.7031ZM21.7956 29.0881C18.9129 33.6069 17.9157 34.6197 16.3107 34.6197C14.659 34.6197 13.6774 33.1697 13.6774 30.584C13.6774 25.0523 16.4354 19.396 19.7232 19.396C21.5036 19.396 22.9915 20.4243 25.2705 23.6869C23.1065 27.0063 21.7956 29.0881 21.7956 29.0881ZM32.6752 28.5192L30.6818 25.1946C30.1423 24.3172 29.6253 23.511 29.1265 22.7718C30.9232 19.9987 32.4051 18.617 34.1678 18.617C37.8295 18.617 40.759 24.0084 40.759 30.6307C40.759 33.155 39.9322 34.6197 38.2191 34.6197C36.5772 34.6197 35.7928 33.5353 32.6752 28.5192Z" fill="white"/>
</svg>
