<svg xmlns="http://www.w3.org/2000/svg" width="24" height="24" viewBox="0 0 24 24" fill="none">
  <g clip-path="url(#clip0_4115_1346)">
    <path d="M17.718 10.461C18.2949 10.0744 18.7085 9.49771 18.8908 8.81713C19.0902 8.07323 18.9891 7.29829 18.6062 6.63505C18.2232 5.97182 17.6027 5.49679 16.8588 5.29743C16.1782 5.11508 15.472 5.18493 14.8488 5.49121L13.243 2.70998C12.9012 2.1179 12.2872 1.7728 11.6056 1.78443C10.9221 1.79694 10.3231 2.16505 10.003 2.76913C9.77829 3.19354 9.56722 3.6344 9.34376 4.10118C8.43303 6.0036 7.4008 8.15985 5.16922 9.44826L2.30173 11.1038C1.31469 11.6736 0.60767 12.5975 0.310858 13.7051C0.014092 14.8127 0.164467 15.9663 0.734326 16.9533C1.52656 18.3255 2.9689 19.0935 4.45001 19.0935C5.00079 19.0936 5.54635 18.9868 6.05637 18.7789L8.06098 22.251C8.47573 22.9693 9.23061 23.3713 10.0059 23.3713C10.3982 23.3714 10.7835 23.2679 11.1229 23.0714C11.6398 22.7729 12.01 22.2894 12.1653 21.7099C12.3206 21.1303 12.2418 20.5265 11.9433 20.0095L9.97081 16.593C12.0475 15.6058 14.2273 15.7733 16.1681 15.9233C16.6845 15.9632 17.1723 16.0009 17.6525 16.0185C18.3348 16.0429 18.9541 15.7087 19.3066 15.123C19.6591 14.5373 19.6655 13.8342 19.3237 13.2421L17.718 10.4609L17.718 10.461ZM16.5555 6.42937C16.997 6.54768 17.3649 6.82879 17.5913 7.22099C18.0284 7.97807 17.8166 8.93432 17.1301 9.44254L15.4368 6.50971C15.7873 6.35751 16.1778 6.32812 16.5555 6.42937H16.5555ZM4.44809 17.9219C3.3724 17.9219 2.32465 17.364 1.74926 16.3674C1.33592 15.6515 1.22708 14.8137 1.44289 14.0084C1.65865 13.2031 2.1718 12.532 2.88772 12.1187L5.24801 10.756L8.36117 16.1415L5.99801 17.5059C5.50939 17.788 4.97548 17.922 4.44809 17.9219ZM11.0334 21.4066C10.9592 21.6839 10.7828 21.9147 10.537 22.0566C10.0263 22.3514 9.37081 22.1759 9.07587 21.6651L7.09133 18.2278L8.94392 17.1582L10.9285 20.5955C11.0704 20.8414 11.1077 21.1294 11.0334 21.4066H11.0334ZM18.3026 14.5187C18.1693 14.7402 17.9545 14.8574 17.6954 14.8475C17.2389 14.8308 16.7627 14.7939 16.2585 14.755C14.1406 14.5913 11.7592 14.4078 9.38614 15.573L6.25283 10.1526C8.45108 8.67848 9.48326 6.52382 10.4008 4.60724C10.619 4.15148 10.8251 3.72098 11.0386 3.31766C11.1596 3.08924 11.3686 2.96085 11.627 2.95616L11.6416 2.95602C11.8934 2.95602 12.1014 3.07635 12.2282 3.29596L18.309 13.8283C18.4382 14.0521 18.436 14.2973 18.3027 14.5188L18.3026 14.5187ZM16.7805 3.01396L17.9906 0.918084C18.1524 0.637819 18.5107 0.541772 18.791 0.703631C19.0712 0.865444 19.1672 1.2238 19.0054 1.50402L17.7954 3.5999C17.7569 3.66655 17.7057 3.72498 17.6447 3.77184C17.5836 3.81869 17.5139 3.85306 17.4396 3.87298C17.3653 3.89289 17.2878 3.89797 17.2115 3.88791C17.1352 3.87785 17.0616 3.85285 16.995 3.81435C16.7147 3.65254 16.6187 3.29418 16.7805 3.01396ZM22.2205 5.22487L20.0739 6.46424C20.0073 6.50274 19.9337 6.52773 19.8574 6.53778C19.7811 6.54784 19.7036 6.54277 19.6293 6.52285C19.555 6.50294 19.4853 6.46857 19.4242 6.42172C19.3632 6.37486 19.312 6.31644 19.2735 6.24979C19.1117 5.96952 19.2078 5.61116 19.488 5.4494L21.6346 4.21002C21.9147 4.04816 22.2732 4.14426 22.435 4.42448C22.5968 4.70469 22.5007 5.0631 22.2205 5.22487ZM23.8354 9.44071C23.8354 9.76429 23.573 10.0266 23.2494 10.0266H20.8293C20.5057 10.0266 20.2433 9.76434 20.2433 9.44071C20.2433 9.11709 20.5057 8.85477 20.8293 8.85477H23.2494C23.573 8.85477 23.8354 9.11709 23.8354 9.44071Z" fill="white"/>
  </g>
  <defs>
    <clipPath id="clip0_4115_1346">
      <rect width="24" height="24" fill="white"/>
    </clipPath>
  </defs>
</svg>