<svg xmlns="http://www.w3.org/2000/svg" width="24" height="24" viewBox="0 0 24 24" fill="none">
  <path d="M12.25 2.39258C13.084 2.39258 13.8983 2.64635 14.584 3.12109C15.2697 3.59589 15.7944 4.2691 16.0879 5.0498C16.3813 5.83043 16.4297 6.68239 16.2266 7.49121C16.0434 8.22027 15.6615 8.88121 15.1289 9.40723C15.7715 9.43913 16.3818 9.70599 16.8389 10.1631C17.3264 10.6507 17.5996 11.3125 17.5996 12.002V12.3379L19.7715 10.7949C20.1295 10.5381 20.5594 10.4005 21 10.4014C21.557 10.4014 22.0915 10.6228 22.4854 11.0166C22.8791 11.4104 23.0996 11.9451 23.0996 12.502V18.501L23.0957 18.6465C23.0745 18.9853 22.972 19.3151 22.7949 19.6064C22.5926 19.9393 22.3011 20.2087 21.9541 20.3857C21.6072 20.5627 21.2182 20.6399 20.8301 20.6084C20.4422 20.5768 20.0704 20.4384 19.7568 20.208L17.5996 18.665V19.002C17.5995 19.6912 17.3262 20.3524 16.8389 20.8398C16.3513 21.3274 15.6896 21.6016 15 21.6016H3.5C2.81044 21.6016 2.14873 21.3274 1.66113 20.8398C1.17382 20.3524 0.900475 19.6912 0.900391 19.002V12.001C0.902812 11.4302 1.09279 10.8758 1.44141 10.4238C1.75705 10.0147 2.18709 9.71117 2.6748 9.54785C2.3115 9.13629 2.06231 8.63528 1.95605 8.09473C1.83952 7.5015 1.8988 6.88701 2.12695 6.32715C2.35514 5.76723 2.74217 5.28616 3.24023 4.94336C3.73836 4.60055 4.32612 4.41059 4.93066 4.39746C5.53502 4.38434 6.13015 4.54846 6.64258 4.86914C7.15511 5.19001 7.56314 5.65456 7.81543 6.2041C8.0676 6.75355 8.15325 7.36518 8.0625 7.96289C7.98258 8.48875 7.76867 8.9836 7.44336 9.40137H9.36328C8.83426 8.87644 8.45581 8.21713 8.27344 7.49121C8.07033 6.68239 8.11873 5.83043 8.41211 5.0498C8.70559 4.2691 9.2303 3.59589 9.91602 3.12109C10.6017 2.64635 11.416 2.39258 12.25 2.39258ZM3.5 10.6016C3.1287 10.6016 2.77232 10.7492 2.50977 11.0117C2.24731 11.2743 2.09961 11.6307 2.09961 12.002V19.002C2.09969 19.373 2.2475 19.7288 2.50977 19.9912C2.77232 20.2538 3.1287 20.4014 3.5 20.4014H15C15.3713 20.4014 15.7277 20.2538 15.9902 19.9912C16.2525 19.7288 16.4003 19.373 16.4004 19.002V12.002C16.4004 11.6307 16.2527 11.2743 15.9902 11.0117C15.7277 10.7492 15.3713 10.6016 15 10.6016H3.5ZM20.9199 11.5811C20.7513 11.5962 20.5899 11.6592 20.4551 11.7617L20.4531 11.7627L17.5996 13.7979V17.1943L20.4531 19.2451L20.4551 19.2471C20.5903 19.3499 20.7526 19.4128 20.9219 19.4277C21.091 19.4425 21.2611 19.4087 21.4121 19.3311C21.5631 19.2534 21.689 19.1345 21.7754 18.9883C21.8617 18.8421 21.9053 18.6745 21.9004 18.5049V12.499C21.9044 12.3297 21.8601 12.1621 21.7734 12.0166C21.6867 11.8712 21.5609 11.7528 21.4102 11.6758C21.2592 11.5987 21.0887 11.566 20.9199 11.5811ZM12.8154 3.65723C12.2531 3.54545 11.6703 3.60295 11.1406 3.82227C10.6107 4.04176 10.1575 4.41372 9.83887 4.89062C9.52023 5.36752 9.34961 5.9284 9.34961 6.50195C9.34969 7.27081 9.65564 8.00801 10.1992 8.55176C10.7431 9.09561 11.4809 9.40137 12.25 9.40137C12.8236 9.40137 13.3844 9.23174 13.8613 8.91309C14.3382 8.59443 14.7102 8.14122 14.9297 7.61133C15.1491 7.08148 15.2066 6.49801 15.0947 5.93555C14.9828 5.37316 14.7062 4.85667 14.3008 4.45117C13.8952 4.0456 13.378 3.76912 12.8154 3.65723ZM5 5.60156C4.49609 5.60156 4.01257 5.80188 3.65625 6.1582C3.30003 6.51451 3.09961 6.99812 3.09961 7.50195C3.09967 7.87763 3.21121 8.24525 3.41992 8.55762C3.6286 8.86987 3.92552 9.11303 4.27246 9.25684C4.61964 9.40064 5.00253 9.43855 5.37109 9.36523C5.73951 9.29187 6.07812 9.11035 6.34375 8.84473C6.60929 8.57906 6.79 8.24048 6.86328 7.87207C6.93654 7.50359 6.89962 7.12152 6.75586 6.77441C6.61206 6.42726 6.36808 6.13065 6.05566 5.92188C5.74321 5.7131 5.37578 5.60156 5 5.60156Z" fill="white" stroke="white" stroke-width="0.2"/>
</svg>