<svg width="54" height="54" viewBox="0 0 54 54" fill="none" xmlns="http://www.w3.org/2000/svg">
<rect width="54" height="54" rx="27" fill="url(#paint0_linear_1_14626)" fill-opacity="0.12"/>
<path d="M36.8219 24.9829C34.8969 24.9873 33.0156 24.3879 31.4494 23.2679V31.0861C31.4494 32.5342 31.0075 33.9473 30.1806 35.1373C29.3537 36.3273 28.1856 37.2373 26.8294 37.7448C25.4731 38.2523 23.9944 38.3354 22.59 37.9767C21.1856 37.6179 19.9256 36.8436 18.9719 35.7542C18.0181 34.6648 17.4275 33.3042 17.2656 31.8648C17.1037 30.4254 17.3925 28.9729 18.0794 27.6998C18.7662 26.4267 19.8294 25.3942 21.1244 24.7379C22.4194 24.0817 23.8762 23.8411 25.3112 24.0379V27.9711C24.655 27.7654 23.9506 27.7698 23.2987 27.9886C22.6469 28.2073 22.0781 28.6273 21.68 29.1829C21.2819 29.7386 21.0675 30.4123 21.0719 31.1036C21.0762 31.7948 21.2994 32.4598 21.7062 33.0154C22.1131 33.5711 22.6862 33.9823 23.3425 34.1923C23.9987 34.4023 24.7031 34.4023 25.355 34.1879C26.0069 33.9736 26.58 33.5579 26.9825 33.0023C27.385 32.4467 27.6037 31.7729 27.6037 31.0861V15.7998H31.4537C31.4494 16.1236 31.48 16.4517 31.5369 16.7711C31.6725 17.4842 31.9481 18.1667 32.355 18.7704C32.7619 19.3742 33.2869 19.8904 33.895 20.2842C34.7656 20.8573 35.785 21.1636 36.8262 21.1636V24.9873L36.8219 24.9829Z" fill="white"/>
<defs>
<linearGradient id="paint0_linear_1_14626" x1="0" y1="27" x2="54" y2="27" gradientUnits="userSpaceOnUse">
<stop stop-color="#29A6B4"/>
<stop offset="1" stop-color="#9ED2C3"/>
</linearGradient>
</defs>
</svg>
