<svg width="54" height="54" viewBox="0 0 54 54" fill="none" xmlns="http://www.w3.org/2000/svg">
<circle cx="27" cy="27" r="26" stroke="#5D5D5D" strokeWidth="2"/>
<g clip-path="url(#clip0_612_29223)">
<path d="M27 2C13.195 2 2 13.195 2 27C2 40.805 13.195 52 27 52C40.805 52 52 40.805 52 27C52 13.195 40.805 2 27 2ZM39.542 21.1282V24.5133C37.9458 24.5139 36.3949 24.2011 34.9322 23.584C33.9973 23.1899 33.1173 22.6767 32.314 22.057L32.338 32.4763C32.3279 34.8225 31.3997 37.0269 29.7197 38.6873C28.3525 40.0389 26.6201 40.8983 24.7424 41.1766C24.2973 41.2424 23.848 41.2755 23.398 41.2754C21.388 41.2754 19.4797 40.6242 17.9187 39.4229C17.6231 39.1952 17.3418 38.9495 17.0765 38.6873C15.2558 36.8878 14.3169 34.4489 14.475 31.8832C14.5956 29.9302 15.3775 28.0676 16.6811 26.6077C18.4057 24.6759 20.8184 23.6036 23.398 23.6036C23.8521 23.6036 24.3012 23.6377 24.7424 23.703V28.4362C24.3132 28.2945 23.864 28.2223 23.412 28.2224C21.0552 28.2224 19.1484 30.1452 19.1837 32.5038C19.2061 34.0129 20.0304 35.332 21.2462 36.0592C21.8319 36.4105 22.4944 36.6137 23.1764 36.6512C23.7068 36.6806 24.238 36.6102 24.7424 36.4435C26.4263 35.8872 27.641 34.3056 27.641 32.4401L27.6466 25.4629V12.7246H32.3083C32.3122 13.1777 32.3586 13.6295 32.4468 14.0739C32.7986 15.8416 33.795 17.3752 35.1817 18.4207C36.3909 19.3327 37.8966 19.8733 39.5285 19.8733C39.5296 19.8733 39.5431 19.8733 39.5419 19.8723V21.1282H39.542Z" fill="#BBBBBB"/>
</g>
<defs>
<clipPath id="clip0_612_29223">
<rect width="50" height="50" fill="white" transform="translate(2 2)"/>
</clipPath>
</defs>
</svg>
