<svg width="54" height="54" viewBox="0 0 54 54" fill="none" xmlns="http://www.w3.org/2000/svg">
<circle cx="27" cy="27" r="26" stroke="#5D5D5D" strokeWidth="2"/>
<circle cx="27" cy="27" r="25" fill="#BBBBBB"/>
<g clip-path="url(#clip0_612_29244)">
<path d="M42.5539 19.3755C42.3859 17.9743 41.0654 16.6306 39.6838 16.4506C31.2607 15.4038 22.7404 15.4038 14.3173 16.4506C12.9345 16.6303 11.6141 17.9743 11.4461 19.3755C10.8513 24.5108 10.8513 29.49 11.4461 34.6242C11.6141 36.0254 12.9345 37.3703 14.3173 37.549C22.7404 38.5958 31.2607 38.5958 39.6838 37.549C41.0654 37.3706 42.3859 36.0254 42.5539 34.6242C43.1487 29.4905 43.1487 24.5108 42.5539 19.3755ZM24.3331 32.3342V21.6672L32.3333 27.0008L24.3331 32.3342Z" fill="white"/>
</g>
<defs>
<clipPath id="clip0_612_29244">
<rect width="32" height="32" fill="white" transform="translate(11 11)"/>
</clipPath>
</defs>
</svg>
